mtllib materials.mtl
v -0.05520397 0.2428497 -0.002266109
v -0.04070503 0.1445572 -0.000513494
v -0.02092814 0.1445675 -0.02551246
v 0.03430799 0.2407328 -0.03685862
v 0.02906105 0.1436298 -0.02595901
v 0.04928413 0.1436197 -0.000960052
v -0.02664518 0.2426038 -0.03335375
v 0.03632012 0.2398237 0.03299773
v -0.02383679 0.2420872 0.03494751
v -0.03381947 -0.5427053 -0.02567703
v -0.03337324 -0.5427257 0.02432096
v 0.01661596 -0.5436632 0.0238744
v 0.05639282 -0.543653 -0.001124561
v 0.01616976 -0.5436429 -0.02612358
v 0.02950731 0.1436094 0.02403897
v -0.02048191 0.144547 0.02448547
v 0.01029924 -0.3472996 0.02392143
v 0.03007606 -0.3472894 -0.001077533
v -0.06359634 -0.5427154 -0.0006780028
v 0.02398244 -0.150936 0.0239684
v -0.02969 -0.3463621 0.02436793
v -0.02600676 -0.1499984 0.02441496
v -0.04991311 -0.3463519 -0.0006310344
v -0.04622987 -0.1499882 -0.0005840063
v 0.02766564 0.04542756 0.02401543
v 0.03744248 0.04543781 -0.0009835362
v 0.03375927 -0.1509259 -0.001030564
v 0.02353624 -0.1509156 -0.02602953
v 0.009852976 -0.3472793 -0.02607656
v -0.02645299 -0.1499779 -0.02558297
v -0.03013623 -0.3463416 -0.02563
v -0.02232352 0.04636526 0.02446198
v -0.04254663 0.04637551 -0.0005369782
v 0.02721944 0.04544806 -0.0259825
v -0.02276978 0.04638565 -0.025536
v 0.05937108 0.2406251 -0.001211405
v 0.269702 0.125457 -0.04294634
v 0.269702 0.125457 0.04456079
v 0.3511988 0.09903896 0.06346887
v 0.269702 0.1754571 0.04456079
v 0.269702 0.1754571 -0.04294634
v 0.3510166 0.100192 -0.06279111
v 0.001235276 0.2054571 0.05456084
v -0.08825365 0.2004571 0.02956086
v -0.08825365 0.2004571 -0.02794635
v 0.001235276 0.2054571 -0.05294627
v 0.1802131 0.1954571 0.04456085
v 0.09072426 0.2004571 0.02956086
v 0.0907242 0.2004572 -0.02794629
v 0.1802131 0.1954571 -0.04294628
v -0.1777426 0.195457 0.04456085
v -0.2672315 0.175457 0.04456085
v -0.2672314 0.175457 -0.04294622
v -0.1777425 0.195457 -0.04294628
v 0.001235276 0.155457 0.05456084
v -0.08825365 0.1504569 0.02956086
v 0.1802131 0.145457 0.04456085
v 0.09072426 0.1504569 0.02956092
v -0.1777426 0.1454569 0.04456079
v -0.2672315 0.125457 0.04456085
v 0.001235276 0.155457 -0.05294627
v -0.08825368 0.1504569 -0.02794629
v 0.1802131 0.145457 -0.04294628
v 0.09072426 0.1504569 -0.02794629
v -0.1777425 0.1454569 -0.04294628
v -0.2672314 0.1254569 -0.04294622
v -0.3712981 0.09720349 0.06215155
v -0.3687166 0.09912121 -0.06293148
vn -0.7780096 -0.1257384 -0.6155413
vn 0.7725552 -0.1119008 -0.6250093
vn 0.03779441 0.9992675 0.006003146
vn -0.0133961 -0.9999102 -0.0002873721
vn -0.0104105 -0.08032782 -0.9967142
vn 0.007144519 -0.09321068 0.9956208
vn 0.7840084 0.02507191 0.6202437
vn -0.7740524 -0.09378207 0.6261373
vn 0.01611859 0.9998463 0.006898216
vn -2.288144E-06 -0.9999999 -0.0004064557
vn 0.009910616 -0.0006775787 0.9999506
vn -0.7773762 0.01443081 0.6288705
vn 0.9311696 -0.01755324 0.3641635
vn 0.9236734 -0.06427411 -0.3777518
vn -0.009911246 0.0006777591 -0.9999506
vn -0.7841755 0.01485753 -0.6203613
vn -0.7841754 0.01485764 -0.6203613
vn -0.009921678 0.0001730323 -0.9999508
vn 0.7772202 0.02515276 -0.6287258
vn 0.9293593 -0.06484748 0.3634365
vn 0.00992102 -0.0001727995 0.9999508
vn -0.7773761 0.01443098 0.6288706
vn 0.008925128 -0.0004068955 0.9999601
vn -0.7773761 0.01443082 0.6288706
vn 0.784177 -0.01485812 0.6203593
vn 0.925456 -0.01726821 -0.3784614
vn -0.008924509 0.0004067322 -0.9999601
vn -0.008924505 0.0004068839 -0.9999601
vn 0.7773765 -0.01443088 -0.6288701
vn 0.7792974 -0.1125811 0.6164587
vn 0.008924524 -0.0004068842 0.9999601
vn -0.7773762 0.01443092 0.6288705
vn -0.7841761 0.01485755 -0.6203606
vn -0.784176 0.01485741 -0.6203606
vn 0.5265548 0.0707721 -0.8471903
vn 0.5307631 0.07093091 0.8445469
vn -0.6423474 0.04494379 -0.7650947
vn -0.6367355 0.04418559 0.7698153
vn 0.7773772 -0.0144309 -0.6288691
vn 0.7841763 -0.01485726 0.6203603
vn 0.925497 -0.1117102 0.3619063
vn 0.9198757 -0.1108557 -0.3762177
vn 0.814875 -0.0862186 -0.5731886
vn 0.8272458 -0.08458059 0.5554373
vn -0.0148189 0.9997999 0.0134382
vn 0.03137424 0.9994345 0.01210247
vn -0.06037734 -0.1081214 -0.9923025
vn -0.7333618 -0.09659064 -0.6729418
vn -0.7617258 -0.1009495 0.6399868
vn 0.02824218 -0.1056441 0.9940029
vn -0.3083633 -0.9512687 -9.254292E-08
vn 0.6840117 0.729471 2.196644E-07
vn -0.2370911 -4.330733E-10 -0.9714874
vn -0.2260069 -5.283194E-08 0.9741257
vn -0.05578578 0.9984428 1.227959E-08
vn 0.05578585 0.9984428 8.200736E-07
vn -0.2181103 0.9759241 -1.191391E-07
vn -0.2690618 9.973899E-10 0.9631229
vn -0.1653119 7.07896E-07 0.9862413
vn 2.171059E-07 -5.215405E-07 1
vn 0.05578609 -0.9984428 3.541716E-07
vn -0.05578516 -0.9984428 2.679919E-09
vn 0.2181102 -0.9759241 8.012295E-07
vn -0.2690614 -7.043337E-07 -0.963123
vn -5.322544E-07 -7.450582E-08 -1
vn -0.1653123 -2.155417E-07 -0.9862413
vn -0.2181108 -0.975924 -2.085064E-08
vn 0.2620102 -0.9650651 8.37517E-07
vn 5.156121E-07 7.450573E-08 1
vn 0.2181108 0.975924 3.98008E-08
vn -0.6010004 0.7992488 -4.304359E-07
vn 0.1666691 -4.125343E-08 0.9860129
vn 0.1932168 -8.585623E-08 -0.9811561
vn -4.184296E-07 -7.450581E-08 -1
vn 0.2529446 -0.967433 -0.009612369
vn -0.6010986 0.7991748 -0.0001526858
vn 0.6800204 0.733171 0.005713879
vn -0.2985478 -0.9543588 -0.008284255
vn 0.165312 -7.295493E-07 -0.9862413
vn 0.2690617 6.386445E-08 -0.963123
vn 0.1653119 -4.537256E-07 0.9862413
vn 0.2690614 8.36184E-07 0.963123
vn -0.05578576 -0.9984428 2.754275E-10
vn 0.0557858 -0.9984428 8.284237E-07
vn 0.05578509 0.9984428 7.217847E-07
vn -0.0557865 0.9984428 -3.613704E-08
vt -0.121294 0.1475103
vt -0.1120095 0.1439686
vt -0.1106492 0.1468513
vt -0.1103005 0.1458974
vt -0.1049697 0.1376916
vt -0.1021839 0.1392974
vt 0.05448638 0.06342609
vt 0.04608411 0.06705248
vt 0.047978 0.06133488
vt -0.05168967 0.0667574
vt -0.04696991 0.065107
vt -0.04531953 0.06982669
vt -0.04632556 0.07441543
vt -0.05003929 0.0714771
vt -0.1355183 0.1253141
vt -0.1265459 0.1212461
vt -0.1241413 0.1256299
vt 0.1277687 0.1188971
vt 0.119287 0.1142174
vt 0.1214766 0.1097224
vt 0.04319894 0.1187353
vt 0.06067473 0.1277121
vt 0.05916238 0.130518
vt 0.1238562 0.1108242
vt 0.1178811 0.1030367
vt 0.1203079 0.1009273
vt 0.04703822 0.06477045
vt 0.0516079 0.06309374
vt 0.05355345 0.06684019
vt -0.05141379 0.06784752
vt -0.05006169 0.06420226
vt -0.04669056 0.06620707
vt 0.0959791 0.107036
vt 0.07901189 0.09705743
vt 0.08087864 0.09351943
vt 0.09829163 0.102603
vt 0.09396517 0.09917098
vt 0.08308484 0.08282041
vt 0.08574082 0.08100797
vt 0.09662115 0.09735854
vt 0.05996481 0.1445927
vt 0.0756928 0.156355
vt 0.07410025 0.1585158
vt 0.05837224 0.1467535
vt -0.05762177 0.1338672
vt -0.05648392 0.1142161
vt -0.05493044 0.1340938
vt -0.09828822 0.1026068
vt -0.08087523 0.09352328
vt -0.07900846 0.09706126
vt -0.09597568 0.1070399
vt -0.07607492 0.1371177
vt -0.05908328 0.1272685
vt -0.0575173 0.1300449
vt -0.07450894 0.1398941
vt -0.05908328 0.1272685
vt -0.04052565 0.1201957
vt -0.0575173 0.1300449
vt -0.08089392 0.09355108
vt -0.06348218 0.08446513
vt -0.06116904 0.0888979
vt -0.07902665 0.0970888
vt -0.08532009 0.07604521
vt -0.07331886 0.06049027
vt -0.08273483 0.07795719
vt 0.0406738 0.1344874
vt 0.05580371 0.1470789
vt 0.05413974 0.1491852
vt 0.07902786 0.0970838
vt 0.06117024 0.08889289
vt 0.06348337 0.08446012
vt 0.0808951 0.09354607
vt 0.08308484 0.08282043
vt 0.07220452 0.06646987
vt 0.08574083 0.08100799
vt 0.1134124 0.1160934
vt 0.09600133 0.1070062
vt 0.0983148 0.1025737
vt 0.1157259 0.1116609
vt 0.1048455 0.1155215
vt 0.09396517 0.09917098
vt 0.09662115 0.09735853
vt 0.1075015 0.1137091
vt 0.09188005 0.1490885
vt 0.1003759 0.1540131
vt 0.09880989 0.1567895
vt -0.06003978 0.149704
vt -0.05837361 0.130135
vt -0.05568416 0.1303828
vt -0.05735032 0.1499518
vt -0.1157259 0.1116608
vt -0.09831481 0.1025736
vt -0.09600134 0.1070062
vt -0.1134124 0.1160934
vt -0.1244314 0.1162044
vt -0.1157259 0.1116608
vt -0.1134124 0.1160934
vt -0.1221179 0.120637
vt -0.1109566 0.1232504
vt -0.1055164 0.1150751
vt -0.1083006 0.1250629
vt 0.092893 0.1576322
vt 0.1012629 0.1625091
vt 0.09121017 0.1603394
vt 0.1221179 0.120637
vt 0.1134124 0.1160934
vt 0.1157259 0.1116608
vt 0.1244314 0.1162044
vt 0.1102857 0.1236968
vt 0.1048455 0.1155216
vt 0.1075015 0.1137091
vt 0.1129416 0.1218844
vt -0.1015623 0.1518915
vt -0.09306653 0.146967
vt -0.09150054 0.1497433
vt -0.09999636 0.1546679
vt -0.09306654 0.1469669
vt -0.0760749 0.1371177
vt -0.07450892 0.1398942
vt -0.09150055 0.1497433
vt -0.06977896 0.05390654
vt -0.06715365 0.05784813
vt -0.08477738 0.0668989
vt 0.07070306 0.1227264
vt 0.05191391 0.1164431
vt 0.05389515 0.1121833
vt -0.06409097 0.1217898
vt -0.04712136 0.1118153
vt -0.04533282 0.1152674
vt 0.07389094 0.06463578
vt 0.07665713 0.06185513
vt 0.08984999 0.0764636
vt -0.08426881 0.08201011
vt -0.08161282 0.08382255
vt -0.09249311 0.1001731
vt 0.07361738 0.1414696
vt 0.05662574 0.1316204
vt 0.05819173 0.128844
vt 0.07217325 0.1705344
vt 0.06489002 0.1638445
vt 0.06661758 0.16179
vt -0.05836608 0.1566966
vt -0.05567335 0.1569058
vt -0.05599339 0.16679
vt -0.09603497 0.1421891
vt -0.09976567 0.1512003
vt -0.1036943 0.1493148
vt 0.09951875 0.1644346
vt 0.09734812 0.1679433
vt 0.08948676 0.1621711
vt 0.0511971 0.07797472
vt 0.046993 0.07912122
vt 0.04455804 0.07579052
vt 0.0549814 0.06493809
vt 0.05319646 0.07077973
vt 0.04657271 0.06854954
vt -0.1241779 0.1287508
vt -0.1325767 0.1337722
vt -0.1355551 0.1284393
vt -0.1110067 0.1472139
vt -0.1198075 0.1516408
vt -0.1216532 0.1478441
vt 0.1221128 0.0972336
vt 0.129628 0.103735
vt 0.1260148 0.1069966
vt 0.1206119 0.1100013
vt 0.1296819 0.1137541
vt 0.1269686 0.1191314
vt -0.05697115 0.05122177
vt -0.0489854 0.04764367
vt -0.04375684 0.05468879
vt 0.07729365 0.008056267
vt 0.0862558 0.00112304
vt 0.09269013 0.007053836
vt -0.1005537 0.1586975
vt -0.1109378 0.1543528
vt -0.1064186 0.1522133
vt 0.1048577 0.1375387
vt 0.1112489 0.1315283
vt 0.115612 0.1339701
vt 0.04013222 0.07692514
vt 0.04543898 0.06928178
vt 0.05087026 0.07117175
vt 0.05028575 0.08045835
vt 0.040034 0.07706429
vt 0.04453695 0.06917088
vt 0.04993387 0.07115683
vt 0.04824634 0.08008628
vt 0.03966323 0.08478579
vt 0.04253027 0.07607587
vt 0.05084224 0.07881193
vt 0.0479752 0.08752185
vt 0.1267316 0.1091548
vt 0.1309402 0.100856
vt 0.1352716 0.1033539
vt 0.131063 0.1116527
vt 0.1169537 0.1271997
vt 0.1217006 0.1194505
vt 0.1261015 0.1218238
vt 0.1213546 0.1295729
vt 0.1316737 0.1018348
vt 0.133887 0.09293628
vt 0.1383591 0.09517235
vt 0.1361459 0.1040709
vt -0.05037736 0.08019494
vt -0.05096186 0.07090832
vt -0.04553059 0.06901836
vt -0.04022383 0.07666172
vt -0.04814989 0.08034808
vt -0.04983741 0.07141864
vt -0.04444049 0.06943269
vt -0.03993754 0.0773261
vt -0.0483161 0.08648593
vt -0.05118313 0.07777601
vt -0.04287117 0.07503995
vt -0.04000413 0.08374988
vt -0.124025 0.1338971
vt -0.1275392 0.1252812
vt -0.1230176 0.1231468
vt -0.1195034 0.1317627
vt -0.1361459 0.104071
vt -0.1383591 0.09517241
vt -0.133887 0.09293634
vt -0.1316737 0.1018349
vt -0.1176986 0.1439999
vt -0.1220651 0.1360302
vt -0.1175545 0.1338726
vt -0.113188 0.1418423
vt -0.05223501 0.06467955
vt -0.055728 0.05620125
vt -0.04763705 0.05286785
vt -0.04414407 0.06134615
vt -0.04930111 0.08411493
vt -0.0426492 0.0706061
vt -0.04098095 0.0814039
vt 0.1098746 0.1409611
vt 0.1156655 0.1338514
vt 0.1201376 0.1360875
vt 0.1143467 0.1431972
vt 0.04455949 0.06033782
vt 0.04805248 0.05185952
vt 0.05614342 0.05519293
vt 0.05265043 0.06367122
vt 0.02443347 0.1325653
vt 0.02678207 0.119638
vt 0.0327563 0.1352681
vt 0.1310245 0.0999267
vt 0.133029 0.08918624
vt 0.1355352 0.1020838
vt -0.1416502 0.08758856
vt -0.1399282 0.07484914
vt -0.1372657 0.08518517
vt -0.1143467 0.1431972
vt -0.1201376 0.1360875
vt -0.1156655 0.1338514
vt -0.1098746 0.1409611
vt -0.05090695 0.08334761
vt -0.05607776 0.07401033
vt -0.04428669 0.06982323
vt 0.02675652 0.1196472
vt 0.03855376 0.1238169
vt 0.03273025 0.1352775
vt 0.0927708 0.008516171
vt 0.08671108 0.01800232
vt 0.07737331 0.009503164
vt -0.04418098 0.05707813
vt -0.05570989 0.06222728
vt -0.05740548 0.05365016
vt -0.1349309 0.1054505
vt -0.1387976 0.09722668
vt -0.1343967 0.09485347
vt -0.13053 0.1030773
vt -0.1274332 0.1169461
vt -0.132508 0.1091469
vt -0.1281766 0.106649
vt -0.1231017 0.1144483
vt 0.1255816 0.1170914
vt 0.129046 0.1086902
vt 0.1335565 0.1108477
vt 0.1300921 0.119249
vt 0.1163197 0.1373359
vt 0.1207382 0.1291469
vt 0.1252598 0.1312813
vt 0.1208413 0.1394703
vt -0.04983744 0.07141855
vt -0.05527887 0.06387047
vt -0.04518957 0.06015781
vt -0.04444052 0.06943259
vt -0.05096182 0.07090825
vt -0.05532413 0.06293625
vt -0.0470595 0.06006033
vt -0.04553054 0.06901829
vt 0.04453691 0.069171
vt 0.04528596 0.0598962
vt 0.05537526 0.06360887
vt 0.04993383 0.07115694
vt 0.04543894 0.06928188
vt 0.04696789 0.06032393
vt 0.05523252 0.06319984
vt 0.05087022 0.07117186
o group1377344500
g mesh1377344500
usemtl mat19
f 3/3/1 2/2/1 1/1/1
f 6/6/2 5/5/2 4/4/2
f 9/9/3 8/8/3 7/7/3
f 14/14/4 13/13/4 12/12/4 11/11/4 10/10/4
f 5/17/5 3/16/5 7/15/5
f 16/20/6 15/19/6 8/18/6
f 18/23/7 17/22/7 12/21/7
f 2/26/8 16/25/8 9/24/8
f 7/29/9 1/28/9 9/27/9
f 11/32/10 19/31/10 10/30/10
f 22/36/11 21/35/11 17/34/11 20/33/11
f 24/40/12 23/39/12 21/38/12 22/37/12
f 27/44/13 26/43/13 25/42/13 20/41/13
f 27/47/14 29/46/14 28/45/14
f 28/51/15 29/50/15 31/49/15 30/48/15
f 30/55/16 31/54/16 23/53/16 24/52/16
f 31/58/17 10/57/17 23/56/17
f 29/62/18 14/61/18 10/60/18 31/59/18
f 18/65/19 14/64/19 29/63/19
f 27/68/20 20/67/20 17/66/20
f 21/72/21 11/71/21 12/70/21 17/69/21
f 23/75/22 11/74/22 21/73/22
f 32/79/23 22/78/23 20/77/23 25/76/23
f 33/83/24 24/82/24 22/81/24 32/80/24
f 6/86/25 15/85/25 25/84/25
f 26/90/26 27/89/26 28/88/26 34/87/26
f 34/94/27 28/93/27 30/92/27 35/91/27
f 5/98/28 34/97/28 35/96/28 3/95/28
f 6/101/29 34/100/29 5/99/29
f 6/104/30 8/103/30 15/102/30
f 16/108/31 32/107/31 25/106/31 15/105/31
f 2/112/32 33/111/32 32/110/32 16/109/32
f 3/116/33 35/115/33 33/114/33 2/113/33
f 35/120/34 30/119/34 24/118/34 33/117/34
f 18/123/35 13/122/35 14/121/35
f 12/126/36 13/125/36 18/124/36
f 10/129/37 19/128/37 23/127/37
f 23/132/38 19/131/38 11/130/38
f 27/135/39 18/134/39 29/133/39
f 17/138/40 18/137/40 27/136/40
f 25/141/41 26/140/41 6/139/41
f 6/144/42 26/143/42 34/142/42
f 4/147/43 36/146/43 6/145/43
f 6/150/44 36/149/44 8/148/44
f 8/153/45 36/152/45 4/151/45
f 8/156/46 4/155/46 7/154/46
f 7/159/47 4/158/47 5/157/47
f 1/162/48 7/161/48 3/160/48
f 9/165/49 1/164/49 2/163/49
f 8/168/50 9/167/50 16/166/50
o group893600418
g mesh893600418
usemtl mat16
f 39/171/51 38/170/51 37/169/51
f 41/174/52 40/173/52 39/172/52
f 37/177/53 41/176/53 42/175/53
f 40/180/54 38/179/54 39/178/54
f 46/184/55 45/183/55 44/182/55 43/181/55
f 50/188/56 49/187/56 48/186/56 47/185/56
f 54/192/57 53/191/57 52/190/57 51/189/57
f 43/196/58 44/195/58 56/194/58 55/193/58
f 47/200/59 48/199/59 58/198/59 57/197/59
f 51/204/60 52/203/60 60/202/60 59/201/60
f 55/208/61 56/207/61 62/206/61 61/205/61
f 57/212/62 58/211/62 64/210/62 63/209/62
f 59/216/63 60/215/63 66/214/63 65/213/63
f 61/220/64 62/219/64 45/218/64 46/217/64
f 65/224/65 66/223/65 53/222/65 54/221/65
f 63/228/66 64/227/66 49/226/66 50/225/66
f 38/232/67 57/231/67 63/230/67 37/229/67
f 60/235/68 67/234/68 66/233/68
f 40/239/69 47/238/69 57/237/69 38/236/69
f 41/243/70 50/242/70 47/241/70 40/240/70
f 53/246/71 67/245/71 52/244/71
f 52/249/72 67/248/72 60/247/72
f 66/252/73 68/251/73 53/250/73
f 37/256/74 63/255/74 50/254/74 41/253/74
f 67/259/75 68/258/75 66/257/75
f 53/262/76 68/261/76 67/260/76
f 39/265/77 42/264/77 41/263/77
f 37/268/78 42/267/78 39/266/78
f 62/272/79 65/271/79 54/270/79 45/269/79
f 64/276/80 61/275/80 46/274/80 49/273/80
f 44/280/81 51/279/81 59/278/81 56/277/81
f 48/284/82 43/283/82 55/282/82 58/281/82
f 58/288/83 55/287/83 61/286/83 64/285/83
f 56/292/84 59/291/84 65/290/84 62/289/84
f 49/296/85 46/295/85 43/294/85 48/293/85
f 45/300/86 54/299/86 51/298/86 44/297/86
